<?xml version="1.0"?>
<svg xmlns="http://www.w3.org/2000/svg" height="512px" viewBox="-18 -26 564.00077 564" width="512px" class=""><g><path d="m350.972656 345.808594c-1.167968 0-2.359375-.242188-3.5-.75-4.289062-1.941406-6.203125-6.988282-4.269531-11.289063 9.945313-22.039062 14.980469-45.597656 14.980469-69.996093 0-22.484376-4.304688-44.335938-12.800782-64.957032-1.789062-4.351562.285157-9.332031 4.640626-11.128906 4.328124-1.757812 9.347656.28125 11.136718 4.636719 9.339844 22.679687 14.082032 46.722656 14.082032 71.449219 0 26.835937-5.546876 52.742187-16.484376 77.011718-1.421874 3.15625-4.527343 5.023438-7.785156 5.023438zm0 0" data-original="#000000" class="active-path" data-old_color="#000000" fill="#FFFFFF"/><path d="m159.664062 449.21875c-.433593 0-.882812-.03125-1.332031-.101562-91.746093-14.386719-158.332031-92.332032-158.332031-185.34375 0-103.453126 84.167969-187.621094 187.621094-187.621094 31.007812 0 61.738281 7.71875 88.855468 22.339844 4.144532 2.230468 5.699219 7.402343 3.457032 11.550781-2.234375 4.136719-7.382813 5.714843-11.554688 3.453125-24.632812-13.265625-52.566406-20.289063-80.757812-20.289063-94.050782 0-170.566406 76.515625-170.566406 170.566407 0 84.558593 60.53125 155.414062 143.921874 168.488281 4.652344.738281 7.832032 5.101562 7.105469 9.753906-.667969 4.207031-4.289062 7.203125-8.417969 7.203125zm0 0" data-original="#000000" class="active-path" data-old_color="#000000" fill="#FFFFFF"/><path d="m187.621094 297.882812c-20.429688 0-39.160156-7.199218-50.109375-19.257812-3.167969-3.484375-2.910157-8.878906.578125-12.042969 3.480468-3.152343 8.878906-2.90625 12.042968.582031 7.652344 8.429688 22.019532 13.664063 37.484376 13.664063 15.292968 0 29.582031-5.152344 37.289062-13.449219 3.191406-3.449218 8.601562-3.648437 12.046875-.441406 3.449219 3.203125 3.648437 8.601562.445313 12.050781-10.984376 11.835938-29.597657 18.894531-49.777344 18.894531zm0 0" data-original="#000000" class="active-path" data-old_color="#000000" fill="#FFFFFF"/><path d="m127.921875 187.019531c0 9.421875-7.632813 17.054688-17.054687 17.054688-9.417969 0-17.054688-7.632813-17.054688-17.054688 0-9.417969 7.636719-17.054687 17.054688-17.054687 9.421874 0 17.054687 7.636718 17.054687 17.054687zm0 0" data-original="#000000" class="active-path" data-old_color="#000000" fill="#FFFFFF"/><path d="m281.433594 187.019531c0 9.421875-7.636719 17.054688-17.0625 17.054688-9.417969 0-17.054688-7.632813-17.054688-17.054688 0-9.417969 7.636719-17.054687 17.054688-17.054687 9.425781 0 17.0625 7.636718 17.0625 17.054687zm0 0" data-original="#000000" class="active-path" data-old_color="#000000" fill="#FFFFFF"/><path d="m520.21875 511.09375h-358.183594c-4.710937 0-8.527344-3.816406-8.527344-8.53125v-162.039062c0-4.710938 3.816407-8.523438 8.527344-8.523438h358.183594c4.714844 0 8.53125 3.8125 8.53125 8.523438v162.039062c0 4.714844-3.816406 8.53125-8.53125 8.53125zm-349.652344-17.058594h341.128906v-144.980468h-341.128906zm0 0" data-original="#000000" class="active-path" data-old_color="#000000" fill="#FFFFFF"/><path d="m467.429688 485.507812h-99.382813c-3.722656 0-7.011719-2.40625-8.125-5.953124-1.128906-3.550782.179687-7.414063 3.21875-9.550782 10.253906-7.199218 16.363281-18.945312 16.363281-31.402344 0-21.164062-17.210937-38.375-38.375-38.375-21.164062 0-38.375 17.210938-38.375 38.375 0 12.457032 6.109375 24.203126 16.363282 31.402344 3.039062 2.136719 4.347656 6 3.222656 9.550782-1.109375 3.546874-4.40625 5.953124-8.125 5.953124h-99.382813c-3.039062 0-5.855469-1.625-7.378906-4.257812-3.722656-6.410156-17.6875-20.378906-24.101563-24.101562-2.628906-1.527344-4.253906-4.335938-4.253906-7.378907v-56.449219c0-3.039062 1.625-5.855468 4.253906-7.378906 6.414063-3.722656 20.378907-17.6875 24.101563-24.105468 1.523437-2.628907 4.339844-4.253907 7.378906-4.253907h252.597657c3.039062 0 5.855468 1.625 7.382812 4.253907 3.71875 6.417968 17.691406 20.382812 24.101562 24.105468 2.632813 1.523438 4.257813 4.339844 4.257813 7.378906v56.449219c0 3.042969-1.625 5.851563-4.257813 7.378907-6.410156 3.722656-20.382812 17.691406-24.101562 24.101562-1.53125 2.632812-4.34375 4.257812-7.382812 4.257812zm-79.628907-17.054687h75.117188c5.679687-7.59375 15.59375-17.515625 23.191406-23.195313v-47.421874c-7.597656-5.679688-17.511719-15.597657-23.191406-23.195313h-243.570313c-5.683594 7.59375-15.601562 17.515625-23.199218 23.195313v47.421874c7.597656 5.679688 17.515624 15.59375 23.199218 23.195313h75.109375c-5.640625-8.804687-8.765625-19.140625-8.765625-29.851563 0-30.5625 24.875-55.429687 55.4375-55.429687 30.566406 0 55.433594 24.867187 55.433594 55.429687 0 10.710938-3.121094 21.046876-8.761719 29.851563zm0 0" data-original="#000000" class="active-path" data-old_color="#000000" fill="#FFFFFF"/><path d="m460.523438 425.8125c0 9.417969-7.636719 17.054688-17.054688 17.054688-9.421875 0-17.058594-7.636719-17.058594-17.054688 0-9.425781 7.636719-17.058594 17.058594-17.058594 9.417969 0 17.054688 7.632813 17.054688 17.058594zm0 0" data-original="#000000" class="active-path" data-old_color="#000000" fill="#FFFFFF"/><path d="m255.847656 425.8125c0 9.417969-7.636718 17.054688-17.054687 17.054688-9.421875 0-17.058594-7.636719-17.058594-17.054688 0-9.425781 7.636719-17.058594 17.058594-17.058594 9.417969 0 17.054687 7.632813 17.054687 17.058594zm0 0" data-original="#000000" class="active-path" data-old_color="#000000" fill="#FFFFFF"/><path d="m366.714844 204.074219c-56.4375 0-102.34375-45.90625-102.34375-102.335938 0-56.4375 45.90625-102.34375 102.34375-102.34375 56.429687 0 102.335937 45.90625 102.335937 102.34375 0 56.429688-45.90625 102.335938-102.335937 102.335938zm0-187.617188c-47.023438 0-85.28125 38.257813-85.28125 85.28125 0 47.023438 38.257812 85.28125 85.28125 85.28125 47.023437 0 85.28125-38.257812 85.28125-85.28125 0-47.023437-38.257813-85.28125-85.28125-85.28125zm0 0" data-original="#000000" class="active-path" data-old_color="#000000" fill="#FFFFFF"/><path d="m366.714844 161.433594c-1.914063 0-3.796875-.648438-5.328125-1.863282l-42.640625-34.113281c-3.675782-2.949219-4.277344-8.3125-1.339844-11.992187 2.957031-3.65625 8.316406-4.277344 11.996094-1.332032l34.082031 27.261719 38.105469-83.832031c1.933594-4.269531 6.972656-6.210938 11.296875-4.230469 4.289062 1.953125 6.179687 7.007813 4.226562 11.296875l-42.640625 93.8125c-1.085937 2.386719-3.21875 4.144532-5.777344 4.761719-.660156.15625-1.324218.230469-1.980468.230469zm0 0" data-original="#000000" class="active-path" data-old_color="#000000" fill="#FFFFFF"/></g> </svg>
